<!--
  The same mark from the vendor's dark-theme logo:
  https://yastatic.net/s3/doc-binary/src/dev/metrika/ru/metrica-dark-ru.svg
  (fetched 12.09.2026).

  Yandex exports the two themes separately and the symbol is not identical
  between them: the dark one sits on a slightly larger disc and different
  coordinates. So this is their dark artwork, not the light file recoloured.
  Symbol bounds x 0…47.8, y 0.6…48.4; wordmark paths dropped.
-->
<svg width="48" height="48" viewBox="0 0.6 47.8 47.8" fill="none" xmlns="http://www.w3.org/2000/svg">
	<path d="M23.9 48.4C37.1 48.4 47.8 37.7 47.8 24.5C47.8 11.4 37.3 0.799976 24.2 0.599976H23.6C10.5 0.799976 0 11.4 0 24.5C0 37.7 10.7 48.4 23.9 48.4Z" fill="url(#ymDarkDisc)"/>
	<path d="M0.800049 30.5H15V46.7C8.00005 43.8 2.70005 37.8 0.800049 30.5Z" fill="url(#ymDarkRed)"/>
	<path d="M0.800049 30.5H15V46.7C8.00005 43.8 2.70005 37.8 0.800049 30.5Z" fill="url(#ymDarkRedFade)"/>
	<path d="M14.8999 46.7V24.3C14.8999 21.2 14.8999 19.7 15.4999 18.5C15.9999 17.5 16.7999 16.6 17.7999 16.1C18.9999 15.5 20.4999 15.5 23.4999 15.5H32.7999V46.6C30.0999 47.7 27.1999 48.3 24.0999 48.3H23.4999C20.4999 48.4 17.5999 47.7 14.8999 46.7Z" fill="url(#ymDarkBar)"/>
	<path d="M32.8999 46.7001V2.30005C41.6999 5.80005 47.7999 14.4 47.7999 24.5C47.7999 34.5 41.5999 43.1001 32.8999 46.7001Z" fill="url(#ymDarkYellow)"/>
	<defs>
		<linearGradient id="ymDarkDisc" x1="32.5104" y1="36.504" x2="-6.9217" y2="-18.4621" gradientUnits="userSpaceOnUse">
			<stop stop-color="#4643B9"/>
			<stop offset="1" stop-color="#1E8AFF"/>
		</linearGradient>
		<linearGradient id="ymDarkRed" x1="6.24565" y1="27.5446" x2="15.5129" y2="47.3176" gradientUnits="userSpaceOnUse">
			<stop offset="0.1302" stop-color="#FF455C"/>
			<stop offset="1" stop-color="#FF1139"/>
		</linearGradient>
		<linearGradient id="ymDarkRedFade" x1="15.6269" y1="31.2014" x2="3.17755" y2="42.9822" gradientUnits="userSpaceOnUse">
			<stop stop-color="#FF2D4C"/>
			<stop offset="1" stop-color="#FF2D4C" stop-opacity="0"/>
		</linearGradient>
		<linearGradient id="ymDarkBar" x1="14.827" y1="106.763" x2="25.8906" y2="17.9302" gradientUnits="userSpaceOnUse">
			<stop stop-color="#3C3BA0"/>
			<stop offset="0.4896" stop-color="#1E8AFF"/>
			<stop offset="1" stop-color="#00B2FF"/>
		</linearGradient>
		<linearGradient id="ymDarkYellow" x1="24.0635" y1="19.8169" x2="66.0576" y2="41.857" gradientUnits="userSpaceOnUse">
			<stop stop-color="#FFEA1A"/>
			<stop offset="1" stop-color="#FFB800"/>
		</linearGradient>
	</defs>
</svg>
